<?xml version="1.0" encoding="utf-8"?>
<!DOCTYPE svg PUBLIC "-//W3C//DTD SVG 1.1//EN" "http://www.w3.org/Graphics/SVG/1.1/DTD/svg11.dtd">
<svg version="1.1" id="Layer_1" xmlns="http://www.w3.org/2000/svg" xmlns:xlink="http://www.w3.org/1999/xlink" x="0px" y="0px"
	 width="149px" height="135px" viewBox="0 0 149 135" enable-background="new 0 0 149 135" xml:space="preserve">
<g>
	<path fill-rule="evenodd" clip-rule="evenodd" d="M43.721,46.532c0.855,1.457,1.845,2.809,2.689,4.189
		c0.314,0.526,0.726,0.896,1.126,1.354c0.418,0.472,0.762,1.018,1.182,1.492c0.825,0.919,1.678,1.774,2.537,2.606
		c0.412,0.39,0.765,0.993,1.378,1.04c-0.853-1.142-2.48-2.595-3.415-4.534c-0.196-0.388-0.318-0.837-0.5-1.232
		c-0.393-0.879-0.966-1.652-1.122-2.536c-0.125-0.723-0.29-1.767-0.231-2.567c0.384,0.083,0.502,0.699,0.706,1.099
		c0.651,1.269,1.438,3.11,2.281,4.621c0.53,0.946,1.194,1.896,1.775,2.693c0.325,0.447,0.8,0.824,1.157,1.3
		c0.664,0.875,1.103,1.728,1.967,2.128c-1.279-1.729-2.909-4.856-3.415-7.464c-0.103-0.538-0.146-1.174,0.11-1.578
		c0.569,0.519,0.762,1.374,1.063,2.115c1.492,3.652,3.168,7.334,5.591,9.309c0.113,0.099,0.338-0.066,0.475-0.026
		c1.826,1.531,3.978,3.116,5.9,4.758c0.629,0.538,1.39,0.95,1.975,1.492c0.581,0.545,1.068,1.201,1.657,1.731
		c0.573,0.51,1.244,0.954,1.763,1.479c0.337,0.35,0.584,0.715,0.98,0.985c0.739,0.519,1.834,1.21,2.568,1.896
		c0.667,0.62,1.335,1.311,2.042,1.896c0.694,0.586,1.386,1.257,2.073,1.725c0.466,0.31,1.173,0.479,1.895,0.611
		c0.711,0.15,1.324,0.464,1.909,0.52c1.06,0.102,1.92-0.476,3.007-1.257c0.494-0.357,1.096-0.985,1.751-1.343
		c0.77-0.424,2.101-0.754,2.713-0.4c0.812-0.165,1.704-0.251,2.202,0.341c0.239,0.275,0.291,0.715,0.57,0.994
		c-0.013,0.475-0.188,0.44,0.019,0.844c-0.49,0.165-1.061,0.126-1.429,0.412c-0.172,0.13-0.242,0.385-0.381,0.53
		c-0.215,0.215-0.522,0.334-0.734,0.562c-0.859,0.902-1.206,2.073-1.691,3.069c0.537,0.256,1.122,0.4,1.684,0.605
		c0.156-0.052,0.317-0.106,0.439-0.078c0.777,0.098,1.607,0.078,2.399,0.267c0.126,0.026,0.216,0.16,0.337,0.185
		c0.188,0.031,0.389-0.063,0.577-0.016c0.573,0.105,1.166,0.38,1.751,0.518c0.612,0.133,1.221,0.244,1.811,0.389
		c0.577,0.149,1.217,0.314,1.806,0.393c0.64,0.078,1.284,0.016,1.919,0.138c0.354,0.07,0.724,0.298,1.12,0.4
		c0.385,0.106,0.788,0.138,1.197,0.204c0.931,0.161,1.946,0.459,2.861,0.24c0.181-0.04,1.088-0.519,1.175,0.016
		c0.05,0.298-0.334,0.376-0.731,0.553c0.536,0.232,1.167,0.066,1.811,0.121c0.887,0.092,1.457,0.472,2.599-0.129
		c0.719-0.393,1.778-1.37,2.086-1.963c0.274-0.526,0.089-1.217,0.576-1.613c1.115-0.421,1.193-1.28,1.648-1.99
		c0.715-0.059,0.648-0.55,1.108-0.816c0.411,0.199,0.159,0.646,0.062,0.938c-0.311,0.872-0.554,1.826-0.938,2.713
		c-0.294,0.688-1.178,1.688-1.845,2.28c-0.53,0.476-1.189,1.061-1.794,1.363c-0.529,0.263-1.226,0.565-1.794,0.71
		c-0.625,0.177-1.652,0.157-2.16,0.715c0.26,0.608,0.918,0.26,1.269,0.664c-1.04,0.558-2.563,0.275-3.635,0.604
		c-0.021,0.727,1.044,1.139,1.023,1.881c-1.209,0.248-2.08-0.298-3.081-0.521c0.287,1.437-1.885,1.106-2.662,1.068
		c-0.185,0.23-0.902,1.04-1.633,1.24c-0.263,0.07-0.581-0.126-0.817-0.052c-0.196,0.062-0.298,0.295-0.519,0.425
		c-0.693,0.399-1.84,0.568-1.966-0.118c-0.342,0.07-0.2,0.424-0.472,0.675c-0.514,0.467-1.538,0.628-2.033,0.499
		c-1.135,0.346-2.34,0.851-3.169,0.467c-1.04,0.664-1.868,0.683-2.721,0.507c-0.246-0.051-0.553-0.031-0.722-0.079
		c-0.208-0.066-0.341-0.271-0.546-0.313c-0.471-0.091-0.97,0.121-1.335-0.264c-0.647,0.283-1.103,0.074-1.487-0.259
		c-0.138-0.051-0.231,0.153-0.451,0.185c-0.726-0.342-1.63-0.275-2.563-0.145c-0.445-0.473-1.057-0.543-1.759-0.409
		c-0.397-0.773,0.616-1.276,1.079-1.818c-0.564,0.296-2.175,1.462-2.728,0.774c-1.089,0.672-2.321,1.287-3.28,2.01
		c-0.102,0.59-0.403,1.15-0.615,1.794c-0.396,1.193-0.872,2.136-1.52,3.372c-0.235,0.44-0.459,1.343-0.863,1.567
		c-0.424,0.247-1.002,0.03-1.429-0.118c-0.573,0.345-1.276,0.73-1.712,0.377c-0.338,0.294-1.021,0.612-1.523,0.711
		c-0.209,0.074-0.291-0.153-0.42-0.251c-0.577,0.278-1.893,1.06-2.352,0.51c-0.444,0.36-0.95,0.268-1.292,0.094
		c-0.399,0.087-0.84,0.263-1.11,0.021c-0.067-0.299-0.088-0.573-0.063-0.825c-0.421,0.44-1.173-0.321-0.459-0.612
		c-0.504-0.055-1.187-0.247-1.187-0.965c-0.152-0.189-0.432-0.107-0.592-0.295c-0.229-0.801,0.407-1.24,0.573-1.876
		c-0.317-0.17-0.773-0.135-0.962-0.417c-0.4-0.589,0.372-1.111,0.573-1.617c-0.326-0.271-1.042-0.354-1.13-0.809
		c-0.063-0.369,0.459-0.566,0.588-0.936c-0.404-0.259-0.833-0.471-1.135-0.98c0.357-0.632,1.209-0.676,1.888-0.868
		c2.431-0.667,5.392-1.707,7.989-2.614c0.855-0.299,1.748-0.589,1.896-1.24c-0.062-0.142-0.181-0.165-0.239-0.335
		c-1.036,0.574-2.199,0.841-2.485-0.224c-0.07-0.263,0.24-0.64,0.122-0.898c-0.126-0.283-0.679-0.318-0.647-0.805
		c-0.176,0-0.012,0.475-0.311,0.549c-0.307-0.102-0.541-0.38-0.762-0.705c-0.887,0.298-1.543-0.877-1.236-1.623
		c-0.97,0.806-2.234,0.507-2.336-0.667c-0.562-0.095-1.322-0.177-1.421-1.024c-0.354-0.173-0.786-0.051-1.17-0.381
		c-0.17-0.156-0.217-0.472-0.429-0.68c-0.239-0.234-0.723-0.207-0.961-0.412c-0.11-0.082-0.08-0.223-0.196-0.354
		c-0.322-0.353-0.903-0.307-1.064-0.525c-0.36-0.507-0.044-1.018-0.013-1.48c-0.298-0.177-0.529-0.482-0.831-0.623
		c-0.417,0.046-0.872,0.207-1.249,0.176c-0.231-0.519-1.582-0.51-0.812-1.213c-0.68,0.121-1.036-0.482-1.48-0.899
		c-0.102-0.251,0.126-0.381,0.013-0.64c-0.569-0.428-1.9-0.573-1.536-1.562c-0.428-0.385-0.891-0.684-1.243-0.989
		c-0.071-0.452,0.112-0.79,0.224-1.158c-0.366-0.334-0.986-0.684-0.868-1.354c-0.632-0.212-2.003-0.77-1.468-1.807
		c-0.668-0.388-2.034-0.631-1.693-1.824c0.244-0.204,0.763-0.283,0.911-0.52c-0.267-0.404-1.291-0.258-1.763-0.683
		c-0.333-0.298-0.823-0.55-0.923-1.118c-0.089-0.527,0.495-1.115,1.233-1.025c0.047-0.482-0.495-0.463-0.766-0.593
		c-0.82-0.396-1.672-1.013-2.178-1.842c0.71-0.84,1.597,0.067,2.457-0.243c-0.527-0.404-1.266-1.067-1.998-1.271
		c-0.707-0.698-1.897-0.714-2.372-1.657c1.24,0.075,2.415,0.428,3.553,0.754c1.147,0.334,2.289,0.616,3.419,0.971
		c-0.09-0.75-0.886-0.963-1.404-1.245c-1.088-0.601-2.12-1.265-3.13-2.092c-0.938-0.774-2.097-1.355-2.646-2.879
		c0.392-0.02,0.66,0.251,0.934,0.471c2.784,1.276,5.348,3.023,8.143,4.244c-0.313-0.941-1.127-1.291-1.881-1.908
		c-1.652-1.374-3.529-2.822-4.812-4.985c-0.275-0.447-0.546-1.024-0.562-1.642c0.584,0.013,0.824,0.801,1.347,0.954
		c1.379,1.599,2.969,2.694,4.422,4.134c1.197,0.834,2.35,1.783,3.639,2.423c-0.201-0.71-0.833-1.048-1.319-1.55
		c-2.007-2.073-4.716-5.316-5.19-9.094c-0.008-0.043,0.082-0.062,0.051-0.125C43.626,46.576,43.679,46.557,43.721,46.532z"/>
	<g id="stars_3_">
		<path d="M18.501,75.439c-0.694,0.02-1.104-0.271-1.786-0.263C16.95,75.557,18.119,75.66,18.501,75.439z"/>
		<path d="M17.939,74.969c-0.632-0.02-1.673-0.326-2.05-0.142C16.411,74.94,17.452,75.243,17.939,74.969z"/>
		<path d="M20.028,76.652C19.159,76.562,19.753,77.068,20.028,76.652L20.028,76.652z"/>
		<path d="M26.462,97.542c0.176-0.023,0.361-0.023,0.534-0.042c0.005-0.079,0.009-0.17-0.008-0.248c-0.173,0-0.357,0.02-0.537,0.023
			C26.451,97.365,26.466,97.452,26.462,97.542z"/>
		<path d="M18.704,79.707c-0.015-0.012,0.465,0.051,0.402,0.117C19.423,79.49,18.657,79.519,18.704,79.707z"/>
		<path d="M28.955,95.835c-0.141,0.012-0.278,0.027-0.396,0.02c0,0.099,0.004,0.18-0.004,0.263c0.145-0.012,0.281-0.016,0.411-0.031
			C28.971,96.012,28.971,95.917,28.955,95.835z"/>
		<path d="M27.644,96.82c-0.086,0.004-0.172,0.008-0.266,0.016c0.002,0.094,0.006,0.169,0.012,0.263
			c0.089-0.004,0.172-0.012,0.27-0.016C27.659,96.993,27.653,96.902,27.644,96.82z"/>
		<path d="M23.64,55.547c-0.181,0.008-0.369,0.02-0.553,0.035c0.012,0.082,0.025,0.165,0.021,0.255
			c0.182-0.008,0.351-0.016,0.536-0.03C23.645,55.724,23.64,55.637,23.64,55.547z"/>
		<path d="M22.502,57.439c-0.304-0.016-0.499,0.066-0.519,0.29C22.219,57.683,22.653,57.815,22.502,57.439z"/>
		<path d="M19.604,59.166c0.066-0.577-0.471-0.486-0.958-0.451C18.745,59.101,19.159,59.146,19.604,59.166z"/>
		<path d="M21.704,57.604c-0.217,0.039-0.455,0.016-0.396,0.29C21.54,57.895,21.662,57.773,21.704,57.604z"/>
		<path d="M18.309,80.002c-0.103,0.561,0.479,1.463,1.15,1.613C18.972,81.203,19.133,80.061,18.309,80.002z"/>
		<path d="M28.127,95.76c-0.121,0.009-0.26,0.009-0.394,0.009c-0.003,0.098-0.003,0.185,0.008,0.266
			c0.135,0,0.275-0.019,0.412-0.031C28.146,95.917,28.144,95.831,28.127,95.76z"/>
		<path d="M43.309,112.748c-0.459-0.397-1.104-0.11-1.198,0.451C42.806,113.285,43.085,113.273,43.309,112.748z"/>
		<path d="M37.2,115.44c0.467-0.066,1.186,0.11,1.071-0.451C37.75,114.981,37.333,115.103,37.2,115.44z"/>
		<path d="M36.478,119.904c0.239,0.212,0.534-0.078,0.514-0.424C36.646,119.461,36.418,119.559,36.478,119.904z"/>
		<path d="M38.126,41.449c-0.062-0.248-0.066-0.554-0.432-0.499C37.679,41.295,37.785,41.516,38.126,41.449z"/>
		<path d="M34.346,38.826C34.228,37.448,32.786,38.964,34.346,38.826L34.346,38.826z"/>
		<path d="M41.447,113.505c-0.369,0.028-0.766-0.007-0.945,0.185C40.549,114.26,41.444,113.765,41.447,113.505z"/>
		<path d="M25.077,96.711c0.267-0.099,0.938,0.16,0.797-0.291c-0.139-0.2-0.448-0.168-0.703-0.24
			C25.222,96.432,25.034,96.475,25.077,96.711z"/>
		<path d="M24.477,98.567c0.263,0.042,0.13,0.494,0.572,0.361c-0.215-0.507,0.269-0.433,0.224-0.786
			C24.932,98.21,24.66,98.352,24.477,98.567z"/>
		<path d="M19.61,98.861c-0.073-0.188,0.516-0.356,0.127-0.392C19.761,98.599,19.163,98.755,19.61,98.861z"/>
		<path d="M19.996,103.887c-0.164,0.502,0.679,0.047,0.405-0.152C20.271,103.655,20.013,103.844,19.996,103.887z"/>
		<path d="M20.511,97.645c0.083-0.02,0.168-0.02,0.275-0.023c-0.023-0.087-0.016-0.169-0.013-0.248c-0.099-0.012-0.18,0-0.271,0
			C20.503,97.469,20.511,97.551,20.511,97.645z"/>
		<path d="M25.851,101.594c0.216-0.023,0.475,0,0.377-0.268c-0.076,0-0.161,0-0.264,0.017
			C25.983,101.457,25.864,101.488,25.851,101.594z"/>
		<path d="M22.363,97.009c-0.242,0.022-0.42,0.109-0.509,0.283C22.097,97.26,22.541,97.386,22.363,97.009z"/>
		<path d="M27.229,96.459c-0.416-0.149-1.179-0.186-1.068,0.455C26.589,97.143,27.274,97.229,27.229,96.459z"/>
		<path d="M41.997,113.725c-0.09,0.004-0.185,0.017-0.259,0.032c-0.004,0.079-0.004,0.157,0.015,0.247
			c0.071,0,0.169-0.008,0.264-0.012C42.013,113.905,41.997,113.812,41.997,113.725z"/>
		<path d="M26.651,99.639l2.928-3.969l-5.014,0.247l-2.986-3.8l-0.043,0.146c0.022,0,0.039-0.013,0.066-0.008
			c0.078,0.204-0.004,0.259-0.143,0.263l-1.259,4.235l-2.98,1.014c-0.062,0.185-0.243,0.224-0.38,0.138l-1.391,0.467l4.16,2.615
			l0.053,4.805l3.949-3.035l4.773,1.37L26.651,99.639z M26.996,97.5c-0.173,0.019-0.358,0.019-0.534,0.042
			c0.004-0.09-0.011-0.177-0.011-0.267c0.18-0.004,0.364-0.023,0.537-0.023C27.005,97.33,27.001,97.421,26.996,97.5z M28.56,95.854
			c0.117,0.008,0.255-0.008,0.396-0.02c0.016,0.082,0.016,0.177,0.012,0.251c-0.13,0.016-0.267,0.02-0.411,0.031
			C28.563,96.034,28.56,95.953,28.56,95.854z M27.733,95.769c0.134,0,0.272,0,0.394-0.009c0.017,0.071,0.02,0.157,0.026,0.243
			c-0.137,0.013-0.277,0.031-0.412,0.031C27.73,95.953,27.73,95.866,27.733,95.769z M27.378,96.836
			c0.094-0.008,0.18-0.012,0.266-0.016c0.01,0.082,0.016,0.173,0.016,0.263c-0.098,0.004-0.181,0.012-0.27,0.016
			C27.384,97.005,27.38,96.93,27.378,96.836z M27.229,96.459c0.046,0.77-0.64,0.684-1.068,0.455
			C26.05,96.273,26.812,96.31,27.229,96.459z M19.996,103.887c0.017-0.043,0.275-0.231,0.405-0.152
			C20.675,103.934,19.832,104.389,19.996,103.887z M19.61,98.861c-0.447-0.106,0.15-0.263,0.127-0.392
			C20.126,98.505,19.537,98.673,19.61,98.861z M20.786,97.621c-0.107,0.004-0.192,0.004-0.275,0.023
			c0-0.094-0.008-0.176-0.008-0.271c0.091,0,0.172-0.012,0.271,0C20.771,97.452,20.763,97.534,20.786,97.621z M21.854,97.292
			c0.089-0.174,0.267-0.261,0.509-0.283C22.541,97.386,22.097,97.26,21.854,97.292z M25.049,98.929
			c-0.442,0.133-0.31-0.319-0.572-0.361c0.184-0.216,0.455-0.357,0.796-0.425C25.317,98.496,24.834,98.422,25.049,98.929z
			 M25.851,101.594c0.014-0.105,0.133-0.137,0.113-0.251c0.103-0.017,0.188-0.017,0.264-0.017
			C26.325,101.594,26.066,101.57,25.851,101.594z M25.077,96.711c-0.043-0.236,0.145-0.279,0.094-0.531
			c0.255,0.072,0.564,0.04,0.703,0.24C26.015,96.871,25.344,96.612,25.077,96.711z"/>
		<path d="M37.133,108.625c0.04,0.134,0.067,0.279,0.071,0.455c-0.062-0.078-0.153-0.133-0.244-0.199l-1.652,4.173l-4.885,1.182
			l3.919,2.968l-0.381,4.794l4.2-2.661l4.637,1.786l-1.331-4.625l0.286-0.322c-0.125-0.016-0.266-0.056-0.384-0.098
			c0.303-0.354,0.604-0.699,1.076-0.668l2.292-2.595l-5.012-0.201L37.133,108.625z M36.089,119.803
			c-0.035-0.35,0.199-0.429,0.546-0.377C36.619,119.775,36.301,120.03,36.089,119.803z M37.204,115.425
			c0.165-0.325,0.589-0.412,1.107-0.353C38.37,115.641,37.675,115.397,37.204,115.425z M43.528,113.289
			c-0.267,0.507-0.55,0.491-1.229,0.342C42.445,113.084,43.104,112.854,43.528,113.289z M41.876,114.152
			c0.077-0.004,0.168-0.008,0.267-0.004c-0.015,0.087-0.008,0.173-0.008,0.264c-0.099-0.008-0.196-0.008-0.267-0.008
			C41.855,114.311,41.855,114.231,41.876,114.152z M41.609,113.878c-0.028,0.259-0.962,0.672-0.958,0.095
			C40.847,113.804,41.243,113.87,41.609,113.878z"/>
		<path d="M14.465,84.85l4.127-2.775l2.355,0.832c0.636-0.117,1.318-0.082,2.017-0.172l-0.639-2.019
			c-0.229-0.062-0.453-0.13-0.617-0.153c0.146-0.117,0.342-0.117,0.554-0.078l-0.42-1.338l0.476-0.559
			c-0.314,0.023-0.645,0.036-0.994,0.023c0.282-0.122,0.994-0.682,1.323-0.428l0.683-0.812c-0.238-0.016-0.463,0-0.635,0.079
			c0,0.129,0.172,0.113,0.277,0.133c-0.011,0.134-0.172,0.109-0.277,0.134c-0.091,0.008-0.178-0.005-0.271,0
			c0.259-0.252,0.027-0.33,0.008-0.641c0.436,0.028,0.577-0.23,1.08-0.126c-0.028,0.079-0.004,0.135,0.016,0.178l0.471-0.558
			c-0.451,0.059-1.134-0.118-1.555-0.023c0.326-0.33,1.437-0.927,1.955-0.452l0.592-0.714l-5.018-0.059l-2.738-3.997l-1.66,4.55
			l-4.842,1.309l3.98,2.865L14.465,84.85z M18.194,80.033c0.817,0.113,0.586,1.24,1.049,1.685
			C18.578,81.524,18.057,80.586,18.194,80.033z M18.999,79.907c0.072-0.06-0.404-0.157-0.393-0.138
			C18.567,79.573,19.337,79.594,18.999,79.907z M20.122,76.798C19.816,77.198,19.258,76.652,20.122,76.798L20.122,76.798z
			 M16.911,75.121c0.676,0.032,1.063,0.346,1.754,0.377C18.276,75.687,17.118,75.514,16.911,75.121z M18.144,74.98
			c-0.508,0.255-1.52-0.113-2.034-0.26C16.499,74.556,17.516,74.925,18.144,74.98z"/>
		<path d="M16.448,63.618l4.499-2.136l4.389,2.329l-0.746-4.743l3.663-3.266l-4.955-0.802l-2.123-4.346l-2.306,4.252l-4.997,0.581
			l3.537,3.427L16.448,63.618z M23.44,56.135c0.18,0.017,0.364,0.048,0.545,0.079c-0.016,0.087-0.027,0.17-0.047,0.252
			c-0.186-0.02-0.351-0.052-0.526-0.079C23.431,56.301,23.431,56.214,23.44,56.135z M22.478,57.824
			c0.078,0.396-0.326,0.177-0.566,0.172C21.971,57.785,22.187,57.742,22.478,57.824z M21.665,57.824
			c-0.082,0.148-0.22,0.251-0.447,0.196C21.214,57.742,21.445,57.82,21.665,57.824z M19.282,58.907
			c-0.421-0.109-0.824-0.239-0.837-0.644C18.925,58.334,19.471,58.358,19.282,58.907z"/>
		<path d="M34.989,33.656l-2.885-3.879l-1.489,4.601l-2.917,0.907c0.017,0.055,0.028,0.099,0.017,0.173
			c-0.149,0.032-0.239-0.02-0.311-0.079l-1.586,0.495l4.111,2.712l-0.087,4.807l4.024-2.93l2.316,0.723
			c-0.087-0.181-0.091-0.443-0.091-0.707c0.373,0.071,0.73,0.577,0.565,0.86l1.962,0.601l-1.617-4.526l3.004-3.883L34.989,33.656z
			 M34.291,38.861C32.732,38.964,34.204,37.488,34.291,38.861L34.291,38.861z M38.001,41.582c-0.342,0.055-0.439-0.172-0.42-0.514
			C37.95,41.021,37.946,41.335,38.001,41.582z"/>
		<path d="M138.269,75.023l-5.001-0.342l-2.524-4.122L128.835,75l-4.912,1.049l3.824,3.085l-0.506,4.774l4.267-2.553l4.589,1.92
			l-1.184-4.651L138.269,75.023z M134.304,80.795c-0.094-0.005-0.189-0.009-0.275,0c-0.008-0.092,0.004-0.177,0.017-0.275
			c0.102,0.004,0.173,0.02,0.281,0.035C134.308,80.63,134.3,80.712,134.304,80.795z"/>
		<path d="M127.39,96.066l-2.221-4.287l-2.215,4.291l-4.967,0.699l3.6,3.337l-0.84,4.737l3.13-1.581
			c-0.017-0.095-0.005-0.185,0.015-0.267c0.169-0.016,0.307-0.004,0.438,0.039l0.854-0.433l4.448,2.23l-0.871-4.735l3.611-3.345
			L127.39,96.066z"/>
		<path d="M112.103,112.939l-2.245-4.279l-2.194,4.3l-4.968,0.729l3.62,3.313l-0.82,4.739l3.121-1.591
			c-0.016-0.094-0.004-0.184,0.02-0.262c0.161-0.021,0.307-0.009,0.428,0.026l0.857-0.432l4.455,2.21l-0.887-4.73l3.596-3.356
			L112.103,112.939z"/>
		<path d="M129.687,49.953l-0.938,1.872c0.074-0.039,0.161-0.066,0.161-0.11c0.364,0.11-0.252,0.173-0.196,0.365
			c-0.056-0.02-0.027-0.031-0.063-0.039l-1.117,2.254l-4.954,0.773l3.649,3.277l-0.785,4.755l4.412-2.316l4.472,2.171l-0.918-4.719
			l3.554-3.4l-4.99-0.612L129.687,49.953z M126.161,60.396c0.035-0.047,0.318-0.192,0.428-0.087
			C126.821,60.561,125.914,60.858,126.161,60.396z M128.219,57.102c0.015-0.048,0.318-0.185,0.42-0.078
			C128.878,57.271,127.964,57.568,128.219,57.102z M130.075,51.063c-0.098-0.016-0.2-0.027-0.277-0.027
			c0.015-0.091,0.029-0.177,0.035-0.263c0.098,0.019,0.18,0.015,0.273,0.03C130.092,50.895,130.079,50.978,130.075,51.063z
			 M130.907,60.678c-0.003-0.31,0.088-0.494,0.217-0.636C131.885,60.015,131.619,60.965,130.907,60.678z M134.543,55.617
			c0.091,0.012,0.173,0.016,0.263,0.027c0.052,0.287-0.212,0.217-0.431,0.201C134.405,55.755,134.532,55.731,134.543,55.617z"/>
		<path d="M113.244,37.817c0.118,0.012,0.259,0.031,0.393,0.044c0.013,0.176-0.089,0.219-0.134,0.321l2.392,2.088l-0.683,4.751
			l4.361-2.379l4.503,2.089l-0.997-4.699l3.495-3.464l-5.014-0.521l-2.344-4.225l-2.085,4.37l-0.313,0.056
			c-0.045,0.239-0.269,0.242-0.347,0.459c-0.255-0.087-0.227-0.217-0.16-0.374l-4.111,0.711l1.014,0.896
			C113.229,37.9,113.236,37.864,113.244,37.817z M119.719,38.316C119.248,38.743,119.294,37.888,119.719,38.316L119.719,38.316z
			 M120.394,39.702c-0.23,0.231-0.858-0.008-1.123,0.157C119.417,39.524,120.233,39.58,120.394,39.702z M113.864,36.978
			c0.099,0.008,0.182,0.016,0.271,0.02c0.028,0.271-0.212,0.243-0.433,0.211C113.752,37.123,113.85,37.1,113.864,36.978z"/>
		<path d="M104.525,27.521c-1.127-0.307-1.762-0.994-2.61-1.517c0-0.396,0.93-0.428,0.646-0.718
			c-0.094-0.004-0.191-0.028-0.281-0.024c0.086-0.004,0.184,0.008,0.274,0.016c0,0,0,0,0.007,0.009
			c0.519,0.027,1.033,0.13,1.555,0.29l-0.102-0.451l3.502-3.443l-4.986-0.553l-2.339-4.232l-2.088,4.361l-4.951,0.832l3.698,3.238
			l-0.719,4.751l4.369-2.356l4.512,2.105L104.525,27.521z M99.524,27.943c-0.09,0-0.186-0.016-0.279-0.016
			c0-0.098,0.031-0.185,0.043-0.267c0.079,0.012,0.16,0.023,0.248,0.031C99.532,27.775,99.532,27.85,99.524,27.943z M101.035,26.562
			c-0.356,0.148-0.42,0.674-1.122,0.411c0.424-1.35,2.189-0.228,3.109,0.04C102.382,27.331,101.507,26.812,101.035,26.562z
			 M103.431,28.363c0.266,0.028,0.53,0.048,0.789,0.083C104.157,28.874,103.34,28.847,103.431,28.363z"/>
		<polygon points="55.593,20.096 53.194,15.891 51.161,20.28 46.225,21.183 49.972,24.367 49.295,29.129 53.649,26.719
			58.185,28.76 57.136,24.069 60.591,20.578 		"/>
		<polygon points="79.176,15.212 77.051,10.862 74.735,15.129 69.761,15.726 73.295,19.135 72.349,23.846 76.845,21.701
			81.237,24.014 80.476,19.271 84.142,15.997 		"/>
		<path d="M66.405,32.337c0.09-0.005,0.184-0.012,0.274-0.005c-0.021-0.098-0.024-0.188-0.024-0.258
			c-0.073,0-0.16,0.003-0.259,0.012C66.386,32.168,66.405,32.267,66.405,32.337z"/>
		<path d="M35.5,79.734c0.011,0.122,0.016,0.248,0.016,0.377C35.913,80.28,35.889,79.515,35.5,79.734z"/>
		<path d="M43.913,102.964c0.008-0.146-0.004-0.271-0.004-0.389c-0.137,0-0.263,0.012-0.396,0.008
			C43.497,102.882,43.619,103,43.913,102.964z"/>
	</g>
</g>
</svg>
